<?xml version="1.0" encoding="utf-8"?>
<!-- Generator: Adobe Illustrator 16.0.0, SVG Export Plug-In . SVG Version: 6.00 Build 0)  -->
<!DOCTYPE svg PUBLIC "-//W3C//DTD SVG 1.1//EN" "http://www.w3.org/Graphics/SVG/1.1/DTD/svg11.dtd">
<svg version="1.1" id="Layer_1" xmlns="http://www.w3.org/2000/svg" xmlns:xlink="http://www.w3.org/1999/xlink" x="0px" y="0px"
	 width="612px" height="336.75px" viewBox="0 0 612 336.75" enable-background="new 0 0 612 336.75" xml:space="preserve">
<rect x="0.011" y="-0.219" fill="#FFFFFF" width="612" height="336.75"/>
<g>
	<path fill="#F8971F" d="M281.833,158.417c-13.583,0.521-76.103-7.333-76.103-7.333l1.505-127.856l78.098,1.895
		c0,0,51.333,16.294,51.333,66.128S295.417,157.896,281.833,158.417z"/>
	<rect x="205.758" y="148.743" fill="#F8971F" width="35.4" height="107.825"/>
</g>
<g>
	<g>
		<path fill="#333F48" d="M103.047,154.403H21.422V23.228l83,2.051c0,0,46.875,11.349,51.625,61.035
			S103.047,154.403,103.047,154.403z"/>
	</g>
	<g>
		<rect x="20.289" y="151.994" fill="#333F48" width="36.383" height="105.506"/>
	</g>
	<g>
		<polygon fill="#333F48" points="157.797,259.004 129.702,259.004 70.797,151.994 98.047,151.72 		"/>
	</g>
</g>
<g>
	<defs>
		<line id="SVGID_1_" x1="0" y1="1074.512" x2="537.78" y2="1074.512"/>
	</defs>
	<clipPath id="SVGID_2_">
		<use xlink:href="#SVGID_1_"  overflow="visible"/>
	</clipPath>
</g>
<g>
	<defs>
		<path id="SVGID_3_" d="M536.731,0"/>
	</defs>
	<defs>
		<line id="SVGID_4_" x1="1074.512" y1="537.78" x2="1074.512" y2="0"/>
	</defs>
	<clipPath id="SVGID_5_">
		<use xlink:href="#SVGID_3_"  overflow="visible"/>
	</clipPath>
	<clipPath id="SVGID_6_" clip-path="url(#SVGID_5_)">
		<use xlink:href="#SVGID_4_"  overflow="visible"/>
	</clipPath>
</g>
<g>
	<defs>
		<polyline id="SVGID_7_" points="536.731,1074.512 1074.512,1074.512 1074.512,536.731 		"/>
	</defs>
	<clipPath id="SVGID_8_">
		<use xlink:href="#SVGID_7_"  overflow="visible"/>
	</clipPath>
</g>
<g>
	<g opacity="0">
		<path d="M272.704,107.556c0,9.382-6.5,13.471-12.632,13.471c-6.866,0-12.16-5.032-12.16-13.051c0-8.491,5.556-13.47,12.58-13.47
			C267.776,94.505,272.704,99.799,272.704,107.556z M252.577,107.818c0,5.556,3.197,9.749,7.705,9.749
			c4.403,0,7.705-4.141,7.705-9.854c0-4.298-2.149-9.749-7.6-9.749S252.577,102.997,252.577,107.818z"/>
		<path d="M279.308,120.45V98.594h-3.564v-3.512h3.564v-1.206c0-3.564,0.786-6.814,2.935-8.858c1.73-1.677,4.036-2.359,6.185-2.359
			c1.625,0,3.04,0.367,3.931,0.734l-0.629,3.564c-0.682-0.314-1.625-0.576-2.936-0.576c-3.931,0-4.927,3.459-4.927,7.338v1.363H290
			v3.512h-6.132v21.856H279.308z"/>
	</g>
</g>
<path fill="#333F48" d="M22.502,44.435v214.514c-0.068,0-0.136,0.001-0.204,0.001c-0.517,0.003-3.484-0.008-3.72,0.019
	c-0.059,0.006-0.3-0.005-0.346,0.036l0.643-209.208C20.187,48.122,20.933,46.268,22.502,44.435"/>
<path fill="#333F48" d="M41.05,21.218l57.684,0.067c-0.053,0.117,0,0.166-0.048,0.276c-0.414,0.943-0.622,1.701-0.84,2.394
	c-0.081,0.205-0.093,0.258-0.101,0.311c-0.08,0.234-0.17,0.478-0.288,0.786c-0.051,0.121-0.062,0.152-0.07,0.184l-54.575-0.152
	c0.125-0.158-6.317,0.089-6.197-0.066C38.245,23.68,39.743,22.4,41.05,21.218"/>
<path fill="#333F48" d="M100.098,23.228c0.265,0.691,0.552,1.39,0.829,2.046l-1.496,0.005c0.074-0.203,0.141-0.393,0.202-0.584
	C99.795,24.188,99.923,23.727,100.098,23.228"/>
<path fill="#333F48" d="M55.412,158.596c-0.938,0.007-1.74-0.592-2.033-1.432c0-0.446,0-0.923,0-1.407
	c0.289-0.828,1.073-1.424,2-1.432l0.746-0.006c0.27,0.635,0.806,1.285,1.501,1.927c-0.004,0.73-0.168,1.537-0.062,2.329
	L55.412,158.596z"/>
<path fill="#333F48" d="M20.469,258.938c-0.149,0-0.295-0.016-0.436-0.045c-0.203-0.179-0.441-0.267-0.674-0.267
	c-0.615-0.375-1.025-1.051-1.025-1.824c0-1.179,0.956-2.135,2.135-2.135h36.601c1.179,0,2.021,0.442,2.035,2.135
	c0.018,2.138-0.855,2.135-2.035,2.135H20.469z"/>
<path fill="#333F48" d="M59.104,255.976c0.019,1.179-0.922,2.15-2.102,2.168s-2.15-0.922-2.168-2.102c0,0-1.441-95.649-1.441-95.764
	c-0.009-0.382-0.002-0.816-0.013-1.333c0-0.489,0-1.094,0-1.812c0-0.601,0-1.285,0-1.986c0.287-0.822,1.435-1.52,2.355-1.534
	c0.296-0.005,1.795,2.104,1.796,2.204L59.104,255.976z"/>
<path fill="#333F48" d="M157.236,89.471c0,25.25-13.661,47.309-33.996,59.188c-6.843,3.998-23.901,8.116-23.912,8.075
	c-0.007-0.141-0.868-3.104-0.875-3.208c7.537-1.36,16.458-4.463,22.843-8.194c19.191-11.212,32.085-32.03,32.085-55.861
	c0-11.874-3.201-23-8.787-32.563c-9.551-16.349-28.057-28.605-47.474-31.736c0.122-0.323-0.07-0.218,0.021-0.5
	c0.254-0.79,0.523-1.595,0.917-2.479c0.063-0.144,0.5-0.757,0.568-0.907c20.265,3.488,39.293,16.557,49.296,33.679
	C153.842,65.098,157.236,76.888,157.236,89.471"/>
<path fill="#333F48" d="M99.532,157.256c-0.511-0.933-0.168-2.104,0.765-2.615c0.933-0.511,2.104-0.169,2.615,0.765l55.712,101.754
	c0.511,0.934,0.169,2.104-0.765,2.615c-0.934,0.511-2.104,0.169-2.616-0.765L99.532,157.256z"/>
<path fill="#333F48" d="M128.428,260.422c-1.064,0-1.927-0.863-1.927-1.927c0-1.064,0.863-1.927,1.927-1.927h29.099
	c1.064,0,1.41,0.82,1.41,1.885c0,1.064-0.346,1.969-1.41,1.969H128.428z"/>
<path fill="#333F48" d="M69.409,156.776c-0.519-0.93-0.186-2.103,0.744-2.622c0.929-0.519,2.132-0.424,2.651,0.505l57.229,102.896
	c0.518,0.93,0.185,2.104-0.744,2.622c-0.93,0.519-2.103,0.185-2.622-0.744L69.409,156.776z"/>
<path fill="#333F48" d="M56.109,157.468c-1.064,0-1.927-0.862-1.927-1.927c0-1.064,0.863-1.927,1.927-1.927h14.983
	c1.064,0,1.927,0.863,1.927,1.927c0,1.064-0.862,1.927-1.927,1.927H56.109z"/>
<path fill="#333F48" d="M23.064,23.24c0.065,0.297,0.092,0.213,0.093,0.296c0.088-1.061-0.7-1.992-1.76-2.08s-1.992,0.7-2.08,1.76
	s0.7,1.992,1.76,2.08c1.061,0.088,1.992-0.7,2.08-1.76c-0.006,0.059-1.92,1.763-3.802,0.248c0.228,1.04,1.254,1.699,2.294,1.471
	c1.04-0.227,1.698-1.254,1.471-2.293c-0.227-1.04-1.254-1.698-2.294-1.471c-1.04,0.227-1.698,1.254-1.471,2.293
	c-0.036-0.23-0.043-0.354-0.043-0.372c0.017,1.064,0.893,1.913,1.957,1.896s1.913-0.893,1.896-1.957
	c-0.016-1.064-0.893-1.913-1.957-1.896s-1.913,0.893-1.896,1.957c0-0.004,0-0.001,0,0.024c0,0.053-0.001,0.146-0.001,0.286
	c-0.001,0.336,0.01,0.766,0,1.292c-0.01,0.631-0.074,1.427-0.113,2.203c-0.086,1.74-0.035,3.001-0.051,4.296
	c-0.023,1.9-0.117,3.925-0.131,5.778c-0.006,0.91,0.004,1.826,0,2.811c-0.002,0.516,0.005,1.01,0,1.477
	c-0.006,0.726-0.069,1.4-0.111,2.103c-0.098,1.656-0.185,10.437,0.027,11.264c0.328,1.281,1.217,0.426,2.186-0.013
	c0.97-0.438,0.03,0.053,0.573-0.306c0.794-0.708-0.795,0.708,0,0c0.248-0.252,0.071,0.172,0.576-0.765
	c0.178-0.335,0.077-0.834,0.096-1.617c0.029-1.199,0.006-2.131,0.09-3.029c0.171-1.857,0.206-3.735,0.3-5.306
	c0.038-0.639,0.108-1.418,0.118-2.293c0.005-0.513-0.002-1.018,0-1.5c0.004-1.014-0.007-1.925,0-2.798
	c0.013-1.773,0.106-3.792,0.131-5.76c0.017-1.395-0.035-2.56,0.047-4.15c0.036-0.717,0.103-1.569,0.117-2.331
	c0.01-0.597-0.001-1.07,0-1.34c0-0.139,0.001-0.235,0.001-0.296c0-0.032,0-0.068,0-0.099c0-0.022-0.008-0.151-0.039-0.354
	c-1.889-1.545-3.803,0.161-3.81,0.236c-0.013,0.258,0.037,1.076,0.356,1.843c0.505,0.937,1.674,1.287,2.61,0.782
	C23.219,25.346,23.569,24.177,23.064,23.24"/>
<path fill="#333F48" d="M21.215,25.083c-1.064,0-1.927-0.863-1.927-1.927s0.863-1.927,1.927-1.927h21.369
	c1.064,0,1.927,0.863,1.927,1.927s-0.862,1.927-1.927,1.927H21.215z"/>
<path fill="#9CADB7" d="M383.108,237.561v-0.828C383.111,236.955,383.117,237.172,383.108,237.561"/>
<path fill="#9CADB7" d="M383.109,53.781c0-0.452-0.174-0.514,0.043-0.875c0.011,0.622,0.881,1.027,1.11,1.397
	c0.586,1.874,1.327,1.853,2.987,3.167c0.211,0.16,0.434,0.858,0.665,0.999l-0.103,161.141c-0.19,0.188-0.477,0.501-0.728,0.725
	c-0.077,0.043-0.066,0.096-0.252,0.232c-0.346,0.281-0.654,0.496-0.833,0.699c-0.409,0.466-0.409-0.565-0.797-0.141
	c-0.441,0.484,0.654,0.478-0.469,0.844c-0.818,0.267-0.446,1.092-0.984,1.781c-0.487,0.625-0.357,1.052-0.545,1.303L383.109,53.781z
	"/>
<path fill="#9CADB7" d="M383.108,32.249c0-1.03,0.647-1.908,1.557-2.25c-0.144,0.266-1.751,2.696-1.853,2.829
	C382.753,32.602,383.108,32.502,383.108,32.249"/>
<path fill="#9CADB7" d="M539.631,257.963c-0.566,0,0.561-0.009,0.15-0.338c0.619-0.027,0.113-0.3,0.438-0.484
	c0.622-0.427,1.147-0.87,0.836-0.755c0.076-0.02,0.124-0.099,0.518-0.339c0.363-0.246,0.913-0.511,1.068-0.656
	c0.497-0.47,0.513-0.417,1.005-0.947c0.568-0.271,0.827-0.676,1.245-0.99l6.213-0.287c-0.129,0.132-0.096,0.177-0.229,0.334
	c-0.333,0.373-0.471,0.733-0.55,0.956c-0.036,0.432,0.177,1.025,0.327,1.21c0.139,0.143,0.336,0.291,0.458,0.365
	c0.302,0.17,0.562,0.382,0.843,0.5c0.383,0.157,0.708,0.416,1.129,0.536c0.207,0.059,0.377,0.231,0.609,0.282
	c-0.44,0.553-0.841,0.613-1.603,0.613H539.631z"/>
<path fill="#9CADB7" d="M418.016,251.938l97.172,1.219c0.16,0.155,0.599,0.363,0.713,0.49c0.151,0.161,0.526,0.627,1.068,1.104
	c0.358,0.307,0.833,0.687,1.266,1.016c0.319,0.325,0.537,0.685,1.609,1.25c0.08,0.045,0.175,0.138,0.531,0.25
	c0.184,0.08,0.111,0.318,0.297,0.391c0.358,0.139-0.157,0.815,0.219,0.922c-0.296,0.13,1.175-0.615,0.831-0.615H407.06
	c-0.799,0-1.507-0.39-1.944-0.989c0.34,0.018,0.661,0.03,0.951,0.04c0.438,0.014,0.856,0.028,1.188,0.024
	c0.128-0.001,0.273-0.011,0.434-0.039c0.119,0.035,0.227,0.054,0.311,0.059c0.272,0,0.613-0.047,0.887-0.107
	c0.533-0.122,1.169-0.341,1.686-0.544c0.466-0.185,0.955-0.402,1.31-0.598c0.117-0.067,0.251-0.16,0.396-0.301
	c0.463-0.152,1.026-0.35,1.553-0.591c0.884-0.417,1.663-1.031,2.152-1.491c0.088-0.084,0.178-0.175,0.266-0.269"/>
<path fill="#9CADB7" d="M386.826,253.157l3.814,0.437c0.483,0.295,1.385,0.199,2.003,0.5c0.624,0.303,1.18,0.6,1.794,0.821
	c0.791,0.279,1.91,0.587,2.861,0.788c0.281,0.059,0.541,0.107,0.784,0.154c0.375,0.149,0.806,0.331,1.279,0.397
	c0.129,0.01,0.283,0.015,0.437,0.012c0.153,0.022,0.308,0.014,0.455-0.022c0.481,0.118,1.005,0.231,1.545,0.333
	c0.424,0.157,1.033,0.243,2.006,0.312c0.065,0.012,0.194,0.022,0.343,0.018c0.137,0.012,0.271,0.023,0.405,0.032
	c-0.435,0.62-1.154,1.024-1.969,1.024h-11.75c-0.166-0.199-0.411-0.478-0.721-0.816c-0.505-0.55-1.219-1.298-2.127-2.21
	c-0.001-0.121-0.02-0.243-0.06-0.364c-0.021-0.044-0.042-0.087-0.202-0.366C387.475,253.819,387.142,253.473,386.826,253.157"/>
<path fill="#9CADB7" d="M416.918,52.875v167.05c-0.147-0.121-0.297-0.253-0.446-0.382c-0.849-0.732-1.776-1.514-2.635-1.912
	c-0.399-0.173-0.872-0.307-1.227-0.347c-0.14-0.014-0.276-0.003-0.499,0.044l0.139-159.233c1.067-0.514,1.783-1.768,2.426-2.658
	c0.459-0.505,0.547-0.631,0.729-0.892c0.312-0.453,0.789-0.493,1.064-1.075c0.154-0.287,0.432-0.298,0.449-0.375
	C417.021,52.85,416.816,53.134,416.918,52.875"/>
<path fill="#9CADB7" d="M418.707,221.632c0.141-0.025,0.285-0.039,0.433-0.039h100.673c-0.348,0.227-0.515,0.397-1.125,0.719
	c-0.393,0.207-0.854,0.777-1.391,1.128c-1.032,0.675-1.876,1.108-2.359,1.934c-0.095,0.123-0.584,0.63-0.667,0.777l-91.592,0.238
	c-0.294-0.574-0.751-1.213-1.305-1.869C420.883,223.744,419.884,222.768,418.707,221.632"/>
<path fill="#9CADB7" d="M542.225,221.594l5.947,0.141c0.411,0.517,0.966,1.107,1.125,1.313c0.104,0.128,0.312,0.35,0.563,0.547
	c0.209,0.41,0.545,0.751,0.734,1.109c0.201,0.381,0.445,0.56,0.578,0.781c0.102,0.169,0.169,0.073,0.253,0.187
	c0.105,0.167,0.001,0.39,0.075,0.501c0,0-7.249-1.911-7.297-1.969c-0.081-0.089,0.051,0.117-0.359-0.281"/>
<path fill="#9CADB7" d="M528.494,218.735c0.077-0.109,0.165-0.212,0.262-0.31l25.693-25.693c0.938-0.938,2.46-0.938,3.398,0
	s0.938,2.46,0,3.398l-23.077,23.078c-0.269-0.024-0.409-0.039-0.54-0.055c-0.785-0.095-1.595-0.293-2.527-0.349
	c-0.44-0.022-0.896-0.018-1.346-0.001c-0.166-0.002-0.326,0-0.479,0.008c-0.281-0.059-0.576-0.096-0.984-0.054
	C528.745,218.748,528.613,218.742,528.494,218.735"/>
<path fill="#9CADB7" d="M555.844,196.824c-1.327,0-2.844-1.184-2.403-2.403c0.451-1.248,1.153-2.171,2.403-2.403h24.284
	c1.327,0,2.403,1.076,2.403,2.403s-1.076,2.403-2.403,2.403H555.844z"/>
<path fill="#9CADB7" d="M539.331,257.62c-0.21-0.069,0.367-0.241,0.191-0.357c0.374-0.1,0.15-0.071,0.363-0.192
	c0.418-0.287,0.81-0.469,0.832-0.477c-0.076,0.02,0.27-0.178,0.663-0.419c0.363-0.246,0.901-0.357,1.057-0.502
	c0.497-0.47,0.867-0.641,1.359-1.172c0.109-0.052,0.463-0.234,0.565-0.29l23.123,7.576c1.262,0.413,1.949,1.771,1.536,3.032
	c-0.414,1.261-1.771,1.949-3.032,1.536L539.331,257.62z"/>
<path fill="#9CADB7" d="M566.737,266.474c-1.327,0-2.403-1.076-2.403-2.403s1.076-2.403,2.403-2.403h26.899
	c1.327,0,2.403,1.076,2.403,2.403s-1.076,2.403-2.403,2.403H566.737z"/>
<path fill="#9CADB7" d="M421.094,235.41c0-6.884-3.419-12.97-8.651-16.651c-0.17-0.154-2.208-1.899-5.161-2.884
	c-1.974-0.658-4.231-0.811-6.533-0.811c-7.239,0-13.595,3.78-17.201,9.474c-0.182,0.16-0.313,0.373-0.372,0.611
	c-1.763,3.012-2.773,6.519-2.773,10.261c0,4.217,1.283,8.134,3.479,11.382c0.053,0.109,0.525,0.692,0.701,0.975
	c0.802,1.289,1.968,2.322,3.09,3.342c0.344,0.313,1.789,1.265,1.964,1.348c0.864,0.564,1.773,1.064,2.722,1.494
	c0.095,0.048,0.19,0.096,0.286,0.142c0.624,0.303,1.18,0.6,1.794,0.821c0.791,0.279,1.91,0.587,2.861,0.788
	c0.281,0.059,0.541,0.107,0.784,0.154c0.336,0.134,1.592,0.288,1.745,0.284c0.56,0.08,2.022-0.022,2.281-0.016
	c0.568,0.014,1.96-0.352,2.233-0.413c0.533-0.122,2.188-0.792,2.445-0.868C414.938,252.453,421.094,244.544,421.094,235.41
	 M425.9,235.41c0,13.891-11.262,25.152-25.152,25.152c-6.704,0-12.295-2.781-17.186-6.969c-0.083-0.071-0.594-0.75-0.953-1.141
	c-0.444-0.483-0.409-0.397-0.813-0.813c-0.618-0.635-1.349-1.322-1.877-2.125c-2.326-3.532-4.324-8.878-4.324-14.106
	c0-13.891,11.261-25.152,25.152-25.152C414.639,210.258,425.9,221.519,425.9,235.41"/>
<path fill="#9CADB7" d="M550.546,239.173c0-11.237-9.109-20.346-20.346-20.346c-3.006,0-6.717,1.067-9.284,2.237
	c-0.338,0.014,0.212-0.246,0,0c-6.568,3.374-11.063,10.217-11.063,18.109c0,11.237,9.109,20.346,20.347,20.346
	C541.437,259.519,550.546,250.41,550.546,239.173 M555.353,239.173c0,13.892-11.262,25.152-25.152,25.152
	c-13.892,0-25.152-11.261-25.152-25.152c0-13.891,11.261-25.152,25.152-25.152C544.091,214.021,555.353,225.282,555.353,239.173"/>
<path fill="#9CADB7" d="M419.447,42.647c0-3.585-0.966-6.945-2.652-9.832c-3.387-5.796-9.673-9.691-16.87-9.691
	c-3.585,0-6.945,0.966-9.833,2.653c-0.746,0.437-2.457,1.643-2.575,1.792c-0.329,0.272-3.199,2.948-3.298,3.369
	c-2.458,3.271-3.817,7.315-3.817,11.709c0,3.585,0.966,6.945,2.652,9.832c3.387,5.796,9.674,9.691,16.871,9.691
	c3.585,0,6.944-0.966,9.832-2.653C415.553,56.131,419.447,49.844,419.447,42.647 M424.254,42.647
	c0,8.967-4.852,16.801-12.073,21.021c-3.599,2.103-7.787,3.309-12.256,3.309c-8.968,0-16.802-4.851-21.021-12.072
	c-2.103-3.6-3.309-7.787-3.309-12.257c0-8.967,4.851-16.801,12.072-21.02c3.6-2.103,7.787-3.309,12.257-3.309
	c8.967,0,16.801,4.851,21.02,12.073C423.048,33.99,424.254,38.177,424.254,42.647"/>
<path fill="#F8971F" d="M211.01,200.031c-0.136,0.029-0.277,0.044-0.421,0.044c-0.162,0-0.319-0.02-0.47-0.056
	C210.414,200.024,210.711,200.028,211.01,200.031"/>
<path fill="#F8971F" d="M244.126,199.729c-0.32,0.218-0.708,0.346-1.125,0.346c-0.347,0-0.673-0.088-0.958-0.244
	C242.763,199.8,243.458,199.766,244.126,199.729"/>
<path fill="#F8971F" d="M268.916,20.721c25.865,0,48.462,13.994,60.632,34.824c6.064,10.38,9.54,22.458,9.54,35.348
	c0,25.865-13.993,48.462-34.824,60.631c-10.38,6.064-22.458,9.541-35.348,9.541c-9.987,0-19.487-2.086-28.088-5.847
	c0.105-0.08,0.198-0.174,0.276-0.28c0.189-0.19,0.238-0.313,0.331-0.687c0.028-0.173,0.056-0.441,0.062-0.697
	c0.007-0.381-2.747,1.33-2.741,0.843c0.003-0.34,0.051-3.216,0.057-3.584c8.352,3.806,20.327,6.255,30.104,6.255
	c12.154,0,23.543-3.276,33.331-8.995c19.645-11.477,32.843-32.787,32.843-57.179c0-12.154-3.275-23.543-8.994-33.332
	c-11.477-19.644-32.787-32.843-57.18-32.843c-5.039,0-9.153-1.551-13.869-0.485c-0.263-0.151-2.305-0.312-0.896,0.398
	c0.146,0.074-0.469,0.011-0.584,0.019c-0.223,0.018-0.408,0.046-0.52,0.051c-2.235,0.13-3.593-0.125-5.625-0.078
	c-1.017,0.025-2.062-0.057-3.061-0.03c-0.528-0.222,2.183-3.798,1.559-3.804C259.687,20.905,260.383,20.721,268.916,20.721"/>
<path fill="#F8971F" d="M205.125,24.906c-1.607-0.096-1.728,0.426-1.771-0.677c-0.042-1.104-0.307-3.767,0.443-3.788l71.623,0.595
	c1.104-0.042,2.032,0.817,2.075,1.921c0.042,1.103-0.817,2.032-1.921,2.074c0,0-36.621-0.248-39.121,0.091L205.125,24.906z"/>
<path fill="#FFFFFF" d="M301.477,53.976c-9.504-8.568-21.407-12.789-33.269-12.789c-13.586,0-27.119,5.538-36.933,16.423
	c-8.568,9.503-12.789,21.406-12.789,33.269c0,13.586,5.538,27.119,16.423,36.932c9.504,8.568,21.407,12.789,33.269,12.789
	c13.586,0,27.119-5.538,36.932-16.423c8.569-9.504,12.79-21.406,12.79-33.269C317.9,77.322,312.362,63.79,301.477,53.976z"/>
<path fill="#F8971F" d="M203.358,29.597c0-1.327-0.415-7.888,0.913-7.888c1.327,0,3.823,1.746,3.823,3.073l0.071,231.53
	c0,1.327-1.076,2.403-2.403,2.403c-1.328,0-2.403-1.076-2.403-2.403V29.597z"/>
<path fill="#F8971F" d="M238.755,154.397c0-1.328,1.076-2.403,2.403-2.403s2.403,1.076,2.403,2.403v102.612
	c0,1.327-1.076,1.706-2.403,1.706s-2.403-0.379-2.403-1.706V154.397z"/>
<path fill="#F8971F" d="M205.762,258.715c-1.328,0-2.403-1.076-2.403-2.403s1.076-2.403,2.403-2.403h35.396
	c1.327,0,2.403,1.076,2.403,2.403s-1.076,2.403-2.403,2.403H205.762z"/>
<path fill="#9BADB7" d="M401.189,42.483c0-0.21-0.055-0.408-0.153-0.578c-0.202-0.344-0.574-0.578-1.003-0.578
	c-0.211,0-0.408,0.054-0.578,0.153c-0.345,0.201-0.578,0.574-0.578,1.003c0,0.21,0.054,0.408,0.153,0.578
	c0.201,0.345,0.574,0.578,1.003,0.578c0.21,0,0.408-0.054,0.578-0.153C400.955,43.285,401.189,42.912,401.189,42.483
	 M413.205,42.483c0,4.853-2.624,9.094-6.533,11.378c-1.949,1.139-4.218,1.794-6.639,1.794c-4.854,0-9.095-2.624-11.378-6.533
	c-1.14-1.95-1.795-4.218-1.795-6.64c0-4.853,2.624-9.094,6.533-11.378c1.949-1.139,4.218-1.794,6.64-1.794
	c4.853,0,9.094,2.624,11.378,6.533C412.55,37.794,413.205,40.062,413.205,42.483"/>
<path fill="#9BADB7" d="M402.342,235.454c0-0.216-0.056-0.418-0.157-0.593c-0.207-0.353-0.589-0.593-1.028-0.593
	c-0.216,0-0.419,0.056-0.593,0.158c-0.354,0.206-0.593,0.588-0.593,1.028c0,0.215,0.056,0.418,0.157,0.593
	c0.207,0.353,0.589,0.592,1.028,0.592c0.216,0,0.419-0.056,0.593-0.157C402.103,236.275,402.342,235.893,402.342,235.454
	 M414.357,235.454c0,4.864-2.63,9.114-6.547,11.403c-1.954,1.142-4.228,1.798-6.654,1.798c-4.863,0-9.114-2.63-11.403-6.547
	c-1.142-1.954-1.798-4.227-1.798-6.654c0-4.864,2.63-9.114,6.547-11.403c1.954-1.142,4.228-1.798,6.654-1.798
	c4.863,0,9.114,2.63,11.403,6.547C413.701,230.753,414.357,233.027,414.357,235.454"/>
<path fill="#9BADB7" d="M531.356,239.173c0-0.21-0.055-0.408-0.153-0.578c-0.202-0.344-0.574-0.578-1.003-0.578
	c-0.211,0-0.409,0.054-0.578,0.153c-0.345,0.202-0.578,0.574-0.578,1.003c0,0.21,0.054,0.408,0.153,0.578
	c0.201,0.345,0.574,0.578,1.003,0.578c0.21,0,0.408-0.054,0.578-0.153C531.122,239.975,531.356,239.602,531.356,239.173
	 M543.372,239.173c0,4.853-2.624,9.094-6.533,11.378c-1.949,1.139-4.218,1.794-6.639,1.794c-4.854,0-9.095-2.624-11.378-6.533
	c-1.14-1.95-1.795-4.218-1.795-6.64c0-4.853,2.624-9.094,6.533-11.378c1.949-1.139,4.218-1.794,6.64-1.794
	c4.853,0,9.094,2.624,11.378,6.533C542.717,234.483,543.372,236.751,543.372,239.173"/>
<path fill="#9BADB7" d="M402.736,47.958c0.091-0.039,0.116-0.051,0.08-0.035c3.053-1.302,4.471-4.831,3.169-7.883
	c-1.302-3.052-4.831-4.471-7.883-3.169c-0.095,0.041-0.127,0.055-0.094,0.041c-3.051,1.305-4.465,4.836-3.16,7.887
	C396.154,47.849,399.686,49.263,402.736,47.958"/>
<path fill="#9BADB7" d="M400.641,228.775c-0.062,0.017,0.134-0.026,0.346-0.067c-3.281,0.494-5.541,3.554-5.047,6.835
	c0.493,3.281,3.554,5.541,6.835,5.047s5.541-3.554,5.047-6.835c-0.493-3.281-3.554-5.541-6.835-5.047
	c0.265-0.028,2.018,0.095,4.088,0.992c-2.727-1.891-6.47-1.213-8.36,1.513s-1.214,6.47,1.513,8.361
	c2.727,1.891,6.47,1.213,8.361-1.513c1.891-2.727,1.213-6.47-1.514-8.361c1.069,0.958,2.494,4.063,2.529,5.435
	c0.312-3.303-2.113-6.234-5.417-6.545s-6.234,2.114-6.546,5.417c-0.311,3.303,2.114,6.234,5.418,6.545s6.233-2.114,6.545-5.417
	c-0.187,1.001-0.691,2.25-0.89,2.587c1.806-2.784,1.014-6.504-1.771-8.311c-2.783-1.806-6.504-1.013-8.31,1.771
	c-1.807,2.783-1.014,6.504,1.77,8.31c2.784,1.806,6.505,1.013,8.311-1.77c-0.282,0.38-0.622,0.76-0.56,0.708
	c2.438-2.25,2.592-6.051,0.342-8.49s-6.051-2.592-8.49-0.342c-0.365,0.342-0.961,1.003-1.382,1.599
	c-0.253,0.421-0.791,1.747-0.982,2.803c0.028,1.439,1.474,4.587,2.667,5.629c2.072,0.899,3.993,1.021,4.465,0.961
	c0.422-0.072,0.865-0.178,1.051-0.229c3.199-0.879,5.08-4.186,4.201-7.385C407.146,229.777,403.84,227.896,400.641,228.775"/>
<path fill="#9BADB7" d="M530.474,234.936c1.46-0.83,1.991-1.076,0.779-0.668c-3.07,1.258-4.54,4.767-3.282,7.837
	c1.258,3.071,4.767,4.54,7.837,3.282s4.54-4.767,3.282-7.837s-4.767-4.54-7.837-3.282c-0.667,0.304-2.682,1.97-3.606,3.625
	c-1.205,3.091,0.325,6.574,3.416,7.779c3.092,1.205,6.575-0.324,7.78-3.416c1.205-3.091-0.324-6.574-3.416-7.779
	s-6.575,0.324-7.78,3.416c-0.41,1.557-0.251,3.992,0.076,4.939c1.224,3.084,4.716,4.593,7.8,3.37c3.084-1.224,4.593-4.716,3.369-7.8
	c0.13,0.446,0.268,2.541-0.05,3.856c-0.829,1.411-2.633,2.932-3.064,3.141c-0.649,0.178,0.635-0.143,2.582-1.397
	c2.504-2.178,2.768-5.973,0.59-8.476S532.977,232.758,530.474,234.936z"/>
<path fill="none" stroke="#000000" stroke-miterlimit="10" d="M43.598,122.831"/>
<path fill="none" stroke="#000000" stroke-miterlimit="10" d="M40.804,120.095"/>
<g>
	<path d="M29.771,316.011c0.936,0,1.773-0.156,2.511-0.468c0.738-0.312,1.362-0.75,1.872-1.314c0.51-0.564,0.9-1.248,1.17-2.052
		c0.27-0.804,0.405-1.704,0.405-2.7v-15.588h4.842v15.588c0,1.548-0.249,2.979-0.747,4.293c-0.499,1.314-1.215,2.448-2.151,3.402
		s-2.07,1.698-3.402,2.232c-1.332,0.534-2.832,0.801-4.5,0.801s-3.168-0.267-4.5-0.801c-1.332-0.534-2.463-1.278-3.393-2.232
		c-0.93-0.954-1.644-2.088-2.142-3.402s-0.747-2.745-0.747-4.293v-15.588h4.842v15.57c0,0.996,0.135,1.896,0.405,2.7
		c0.27,0.804,0.657,1.491,1.161,2.061s1.125,1.011,1.863,1.323C27.998,315.855,28.834,316.011,29.771,316.011z"/>
	<path d="M63.845,293.889v3.978h-7.83v22.05h-4.842v-22.05h-7.866v-3.978H63.845z"/>
	<path d="M78.874,309.747v10.17h-4.842v-26.028h7.938c1.776,0,3.297,0.183,4.563,0.549c1.266,0.366,2.304,0.879,3.114,1.539
		c0.81,0.66,1.404,1.449,1.782,2.367c0.378,0.918,0.567,1.929,0.567,3.033c0,0.876-0.129,1.704-0.387,2.484
		c-0.258,0.78-0.63,1.488-1.116,2.124c-0.486,0.636-1.086,1.194-1.8,1.674c-0.714,0.48-1.527,0.864-2.439,1.152
		c0.612,0.348,1.14,0.846,1.584,1.494l6.516,9.612h-4.356c-0.42,0-0.777-0.084-1.071-0.252c-0.294-0.168-0.543-0.408-0.747-0.72
		l-5.472-8.334c-0.204-0.312-0.429-0.534-0.675-0.666c-0.246-0.132-0.609-0.198-1.089-0.198H78.874z M78.874,306.273h3.024
		c0.912,0,1.707-0.114,2.385-0.342c0.678-0.228,1.236-0.543,1.674-0.945c0.438-0.402,0.765-0.879,0.981-1.431
		c0.216-0.552,0.324-1.158,0.324-1.818c0-1.32-0.435-2.333-1.305-3.042c-0.87-0.708-2.199-1.062-3.987-1.062h-3.096V306.273z"/>
	<path d="M105.082,301.161c1.38,0,2.631,0.222,3.753,0.666c1.122,0.444,2.079,1.074,2.871,1.89c0.792,0.816,1.404,1.813,1.836,2.988
		c0.432,1.176,0.648,2.49,0.648,3.942c0,1.464-0.216,2.784-0.648,3.96c-0.432,1.176-1.044,2.178-1.836,3.006
		c-0.792,0.828-1.749,1.464-2.871,1.908c-1.123,0.444-2.374,0.666-3.753,0.666s-2.634-0.222-3.762-0.666s-2.091-1.08-2.889-1.908
		c-0.798-0.828-1.416-1.83-1.854-3.006c-0.438-1.176-0.657-2.496-0.657-3.96c0-1.452,0.219-2.766,0.657-3.942
		c0.438-1.176,1.056-2.172,1.854-2.988c0.798-0.816,1.761-1.446,2.889-1.89S103.702,301.161,105.082,301.161z M105.082,316.767
		c1.536,0,2.673-0.516,3.411-1.548c0.738-1.032,1.107-2.543,1.107-4.536c0-1.992-0.369-3.51-1.107-4.554
		c-0.738-1.044-1.875-1.566-3.411-1.566c-1.56,0-2.712,0.525-3.456,1.575c-0.745,1.05-1.116,2.565-1.116,4.545
		s0.372,3.489,1.116,4.527C102.37,316.248,103.521,316.767,105.082,316.767z"/>
	<path d="M117.718,319.917v-26.748h4.446v10.548c0.732-0.78,1.56-1.401,2.484-1.863s2.004-0.693,3.24-0.693
		c1.008,0,1.929,0.207,2.763,0.621c0.834,0.414,1.554,1.017,2.16,1.809s1.074,1.771,1.404,2.934c0.33,1.164,0.495,2.502,0.495,4.014
		c0,1.38-0.186,2.658-0.558,3.834c-0.372,1.176-0.903,2.196-1.593,3.06c-0.69,0.864-1.524,1.539-2.502,2.025
		s-2.073,0.729-3.285,0.729c-0.564,0-1.08-0.057-1.548-0.171c-0.468-0.114-0.894-0.273-1.278-0.477
		c-0.384-0.204-0.741-0.453-1.071-0.747s-0.645-0.621-0.945-0.981l-0.198,1.242c-0.072,0.312-0.195,0.534-0.369,0.666
		c-0.174,0.132-0.412,0.198-0.711,0.198H117.718z M126.357,304.617c-0.924,0-1.713,0.195-2.367,0.585
		c-0.654,0.39-1.263,0.939-1.827,1.647v8.28c0.504,0.624,1.053,1.059,1.647,1.305c0.594,0.246,1.239,0.369,1.935,0.369
		c0.672,0,1.278-0.126,1.818-0.378s0.999-0.636,1.377-1.152c0.378-0.516,0.669-1.167,0.873-1.953
		c0.204-0.786,0.306-1.712,0.306-2.781c0-1.08-0.087-1.995-0.261-2.745s-0.423-1.359-0.747-1.827
		c-0.324-0.468-0.717-0.81-1.179-1.026C127.471,304.725,126.945,304.617,126.357,304.617z"/>
	<path d="M146.067,301.161c1.38,0,2.631,0.222,3.753,0.666c1.122,0.444,2.079,1.074,2.871,1.89c0.792,0.816,1.404,1.813,1.836,2.988
		c0.432,1.176,0.648,2.49,0.648,3.942c0,1.464-0.216,2.784-0.648,3.96c-0.432,1.176-1.044,2.178-1.836,3.006
		c-0.792,0.828-1.749,1.464-2.871,1.908c-1.123,0.444-2.374,0.666-3.753,0.666s-2.634-0.222-3.762-0.666s-2.091-1.08-2.889-1.908
		c-0.798-0.828-1.416-1.83-1.854-3.006c-0.438-1.176-0.657-2.496-0.657-3.96c0-1.452,0.219-2.766,0.657-3.942
		c0.438-1.176,1.056-2.172,1.854-2.988c0.798-0.816,1.761-1.446,2.889-1.89S144.687,301.161,146.067,301.161z M146.067,316.767
		c1.536,0,2.673-0.516,3.411-1.548c0.738-1.032,1.107-2.543,1.107-4.536c0-1.992-0.369-3.51-1.107-4.554
		c-0.738-1.044-1.875-1.566-3.411-1.566c-1.56,0-2.712,0.525-3.456,1.575c-0.745,1.05-1.116,2.565-1.116,4.545
		s0.372,3.489,1.116,4.527C143.355,316.248,144.507,316.767,146.067,316.767z"/>
	<path d="M164.715,320.205c-1.596,0-2.826-0.453-3.69-1.359c-0.864-0.906-1.296-2.157-1.296-3.753v-10.314h-1.872
		c-0.24,0-0.447-0.078-0.621-0.234c-0.174-0.156-0.261-0.39-0.261-0.702v-1.764l2.97-0.486l0.936-5.04
		c0.048-0.24,0.159-0.426,0.333-0.558s0.393-0.198,0.657-0.198h2.304v5.814h4.86v3.168h-4.86v10.008c0,0.576,0.144,1.026,0.432,1.35
		c0.288,0.324,0.672,0.486,1.152,0.486c0.276,0,0.507-0.033,0.693-0.099c0.186-0.066,0.348-0.135,0.486-0.207
		c0.138-0.072,0.261-0.141,0.369-0.207c0.108-0.066,0.216-0.099,0.324-0.099c0.132,0,0.24,0.033,0.324,0.099
		c0.083,0.066,0.174,0.165,0.27,0.297l1.332,2.16c-0.648,0.54-1.393,0.948-2.232,1.224S165.615,320.205,164.715,320.205z"/>
	<path d="M184.784,310.755v9.162h-4.842v-26.028h8.478c1.74,0,3.246,0.204,4.518,0.612c1.271,0.408,2.322,0.978,3.15,1.71
		s1.44,1.608,1.836,2.628c0.396,1.02,0.594,2.136,0.594,3.348c0,1.26-0.21,2.415-0.63,3.465c-0.42,1.05-1.05,1.953-1.89,2.709
		c-0.84,0.756-1.89,1.344-3.15,1.764c-1.26,0.42-2.736,0.63-4.428,0.63H184.784z M184.784,306.975h3.636
		c0.888,0,1.662-0.111,2.322-0.333s1.206-0.54,1.638-0.954s0.756-0.918,0.972-1.512c0.216-0.594,0.324-1.257,0.324-1.989
		c0-0.696-0.108-1.326-0.324-1.89c-0.216-0.564-0.54-1.044-0.972-1.44s-0.978-0.699-1.638-0.909
		c-0.66-0.209-1.434-0.315-2.322-0.315h-3.636V306.975z"/>
	<path d="M209.12,301.161c1.164,0,2.235,0.186,3.213,0.558c0.978,0.373,1.821,0.916,2.529,1.629s1.26,1.59,1.656,2.628
		s0.594,2.223,0.594,3.555c0,0.336-0.015,0.615-0.045,0.837c-0.03,0.222-0.084,0.396-0.162,0.522s-0.183,0.216-0.315,0.27
		c-0.132,0.054-0.3,0.081-0.504,0.081h-11.412c0.132,1.896,0.642,3.288,1.53,4.176c0.888,0.888,2.064,1.332,3.528,1.332
		c0.72,0,1.341-0.084,1.863-0.252s0.978-0.354,1.368-0.558c0.39-0.204,0.732-0.39,1.026-0.558c0.294-0.168,0.579-0.252,0.855-0.252
		c0.18,0,0.336,0.036,0.468,0.108c0.132,0.072,0.246,0.174,0.342,0.306l1.296,1.62c-0.492,0.576-1.044,1.059-1.656,1.449
		c-0.612,0.39-1.251,0.702-1.917,0.936c-0.666,0.234-1.344,0.399-2.034,0.495c-0.69,0.096-1.359,0.144-2.007,0.144
		c-1.284,0-2.478-0.213-3.582-0.639c-1.104-0.426-2.064-1.056-2.88-1.89c-0.816-0.834-1.458-1.866-1.926-3.096
		c-0.468-1.23-0.702-2.655-0.702-4.275c0-1.26,0.204-2.445,0.612-3.555c0.408-1.11,0.993-2.076,1.755-2.898
		c0.762-0.822,1.692-1.473,2.79-1.953C206.501,301.401,207.74,301.161,209.12,301.161z M209.21,304.347
		c-1.296,0-2.311,0.366-3.042,1.098c-0.732,0.732-1.2,1.771-1.404,3.114h8.352c0-0.576-0.078-1.119-0.234-1.629
		c-0.156-0.51-0.396-0.957-0.72-1.341c-0.324-0.384-0.732-0.687-1.224-0.909C210.446,304.458,209.87,304.347,209.21,304.347z"/>
	<path d="M220.729,319.917v-18.468h2.61c0.456,0,0.774,0.084,0.954,0.252s0.3,0.456,0.36,0.864l0.27,2.232
		c0.66-1.14,1.434-2.04,2.322-2.7c0.888-0.66,1.884-0.99,2.988-0.99c0.912,0,1.668,0.21,2.268,0.63l-0.576,3.33
		c-0.036,0.216-0.114,0.369-0.234,0.459c-0.12,0.09-0.282,0.135-0.486,0.135c-0.18,0-0.426-0.042-0.738-0.126
		s-0.726-0.126-1.242-0.126c-0.924,0-1.716,0.255-2.376,0.765c-0.66,0.51-1.218,1.257-1.674,2.241v11.502H220.729z"/>
	<path d="M248.413,305.355c-0.132,0.168-0.261,0.3-0.387,0.396c-0.126,0.096-0.309,0.144-0.549,0.144
		c-0.228,0-0.45-0.069-0.666-0.207c-0.216-0.138-0.474-0.294-0.774-0.468c-0.3-0.174-0.657-0.33-1.071-0.468
		c-0.414-0.138-0.927-0.207-1.539-0.207c-0.78,0-1.464,0.141-2.052,0.423c-0.588,0.282-1.077,0.688-1.467,1.215
		c-0.39,0.528-0.681,1.167-0.873,1.917c-0.192,0.75-0.288,1.599-0.288,2.547c0,0.984,0.105,1.86,0.315,2.628
		c0.21,0.768,0.513,1.413,0.909,1.935s0.875,0.918,1.44,1.188c0.564,0.27,1.2,0.405,1.908,0.405s1.281-0.087,1.719-0.261
		c0.438-0.174,0.807-0.366,1.107-0.576c0.3-0.209,0.561-0.402,0.783-0.576c0.222-0.174,0.471-0.261,0.747-0.261
		c0.36,0,0.63,0.138,0.81,0.414l1.278,1.62c-0.492,0.576-1.026,1.059-1.602,1.449c-0.576,0.39-1.173,0.702-1.791,0.936
		c-0.618,0.234-1.257,0.399-1.917,0.495c-0.66,0.096-1.314,0.144-1.962,0.144c-1.14,0-2.214-0.213-3.222-0.639
		s-1.887-1.047-2.637-1.863c-0.75-0.816-1.344-1.815-1.782-2.997c-0.438-1.182-0.657-2.529-0.657-4.041
		c0-1.356,0.195-2.613,0.585-3.771c0.39-1.158,0.963-2.16,1.719-3.006c0.756-0.846,1.692-1.509,2.808-1.989
		c1.116-0.479,2.4-0.72,3.852-0.72c1.38,0,2.589,0.222,3.627,0.666c1.038,0.444,1.971,1.08,2.799,1.908L248.413,305.355z"/>
	<path d="M260.238,301.161c1.164,0,2.235,0.186,3.213,0.558c0.978,0.373,1.821,0.916,2.529,1.629s1.26,1.59,1.656,2.628
		s0.594,2.223,0.594,3.555c0,0.336-0.015,0.615-0.045,0.837c-0.03,0.222-0.084,0.396-0.162,0.522s-0.183,0.216-0.315,0.27
		c-0.132,0.054-0.3,0.081-0.504,0.081h-11.412c0.132,1.896,0.642,3.288,1.53,4.176c0.888,0.888,2.064,1.332,3.528,1.332
		c0.72,0,1.341-0.084,1.863-0.252s0.978-0.354,1.368-0.558c0.39-0.204,0.732-0.39,1.026-0.558c0.294-0.168,0.579-0.252,0.855-0.252
		c0.18,0,0.336,0.036,0.468,0.108c0.132,0.072,0.246,0.174,0.342,0.306l1.296,1.62c-0.492,0.576-1.044,1.059-1.656,1.449
		c-0.612,0.39-1.251,0.702-1.917,0.936c-0.666,0.234-1.344,0.399-2.034,0.495c-0.69,0.096-1.359,0.144-2.007,0.144
		c-1.284,0-2.478-0.213-3.582-0.639c-1.104-0.426-2.064-1.056-2.88-1.89c-0.816-0.834-1.458-1.866-1.926-3.096
		c-0.468-1.23-0.702-2.655-0.702-4.275c0-1.26,0.204-2.445,0.612-3.555c0.408-1.11,0.993-2.076,1.755-2.898
		c0.762-0.822,1.692-1.473,2.79-1.953C257.62,301.401,258.858,301.161,260.238,301.161z M260.329,304.347
		c-1.296,0-2.311,0.366-3.042,1.098c-0.732,0.732-1.2,1.771-1.404,3.114h8.352c0-0.576-0.078-1.119-0.234-1.629
		c-0.156-0.51-0.396-0.957-0.72-1.341c-0.324-0.384-0.732-0.687-1.224-0.909C261.564,304.458,260.988,304.347,260.329,304.347z"/>
	<path d="M271.848,325.947v-24.498h2.718c0.288,0,0.534,0.066,0.738,0.198c0.204,0.132,0.336,0.336,0.396,0.612l0.36,1.71
		c0.744-0.852,1.599-1.542,2.565-2.07c0.966-0.528,2.097-0.792,3.393-0.792c1.008,0,1.929,0.21,2.763,0.63
		c0.834,0.42,1.555,1.029,2.16,1.827c0.606,0.798,1.074,1.782,1.404,2.952s0.495,2.511,0.495,4.023c0,1.38-0.187,2.658-0.559,3.834
		c-0.372,1.176-0.902,2.196-1.593,3.06c-0.69,0.864-1.523,1.539-2.502,2.025s-2.073,0.729-3.285,0.729
		c-1.044,0-1.929-0.159-2.654-0.477c-0.727-0.318-1.377-0.759-1.953-1.323v7.56H271.848z M280.487,304.617
		c-0.924,0-1.713,0.195-2.366,0.585c-0.654,0.39-1.264,0.939-1.827,1.647v8.28c0.504,0.624,1.053,1.059,1.646,1.305
		c0.595,0.246,1.233,0.369,1.917,0.369c0.672,0,1.281-0.126,1.827-0.378s1.008-0.636,1.386-1.152
		c0.378-0.516,0.669-1.167,0.873-1.953c0.204-0.786,0.307-1.712,0.307-2.781c0-1.08-0.088-1.995-0.262-2.745
		s-0.423-1.359-0.747-1.827c-0.323-0.468-0.717-0.81-1.179-1.026C281.601,304.725,281.075,304.617,280.487,304.617z"/>
	<path d="M298.271,320.205c-1.597,0-2.826-0.453-3.69-1.359c-0.864-0.906-1.296-2.157-1.296-3.753v-10.314h-1.872
		c-0.24,0-0.447-0.078-0.621-0.234c-0.174-0.156-0.261-0.39-0.261-0.702v-1.764l2.97-0.486l0.937-5.04
		c0.048-0.24,0.158-0.426,0.333-0.558c0.174-0.132,0.393-0.198,0.656-0.198h2.305v5.814h4.859v3.168h-4.859v10.008
		c0,0.576,0.144,1.026,0.432,1.35c0.288,0.324,0.672,0.486,1.152,0.486c0.275,0,0.507-0.033,0.692-0.099
		c0.187-0.066,0.349-0.135,0.486-0.207c0.138-0.072,0.261-0.141,0.369-0.207c0.107-0.066,0.216-0.099,0.324-0.099
		c0.132,0,0.239,0.033,0.323,0.099c0.084,0.066,0.174,0.165,0.271,0.297l1.332,2.16c-0.648,0.54-1.393,0.948-2.232,1.224
		S299.171,320.205,298.271,320.205z"/>
	<path d="M311.537,296.067c0,0.384-0.078,0.744-0.234,1.08s-0.363,0.63-0.621,0.882s-0.561,0.453-0.909,0.603
		c-0.348,0.15-0.72,0.225-1.115,0.225c-0.385,0-0.747-0.075-1.09-0.225c-0.342-0.15-0.639-0.351-0.891-0.603
		s-0.453-0.546-0.603-0.882c-0.15-0.336-0.226-0.696-0.226-1.08c0-0.396,0.075-0.768,0.226-1.116c0.149-0.348,0.351-0.648,0.603-0.9
		c0.252-0.252,0.549-0.453,0.891-0.603c0.343-0.15,0.705-0.225,1.09-0.225c0.396,0,0.768,0.075,1.115,0.225
		c0.349,0.15,0.651,0.351,0.909,0.603c0.258,0.252,0.465,0.552,0.621,0.9S311.537,295.671,311.537,296.067z M310.871,301.449v18.468
		h-4.446v-18.468H310.871z"/>
	<path d="M323.776,301.161c1.38,0,2.631,0.222,3.753,0.666s2.079,1.074,2.871,1.89c0.792,0.816,1.404,1.813,1.836,2.988
		c0.433,1.176,0.648,2.49,0.648,3.942c0,1.464-0.216,2.784-0.648,3.96c-0.432,1.176-1.044,2.178-1.836,3.006
		c-0.792,0.828-1.749,1.464-2.871,1.908s-2.373,0.666-3.753,0.666s-2.634-0.222-3.762-0.666s-2.091-1.08-2.889-1.908
		c-0.799-0.828-1.416-1.83-1.854-3.006c-0.438-1.176-0.657-2.496-0.657-3.96c0-1.452,0.219-2.766,0.657-3.942
		c0.438-1.176,1.056-2.172,1.854-2.988c0.798-0.816,1.761-1.446,2.889-1.89S322.396,301.161,323.776,301.161z M323.776,316.767
		c1.536,0,2.673-0.516,3.411-1.548c0.738-1.032,1.107-2.543,1.107-4.536c0-1.992-0.369-3.51-1.107-4.554s-1.875-1.566-3.411-1.566
		c-1.56,0-2.712,0.525-3.456,1.575c-0.744,1.05-1.115,2.565-1.115,4.545s0.371,3.489,1.115,4.527
		C321.064,316.248,322.217,316.767,323.776,316.767z"/>
	<path d="M336.358,319.917v-18.468h2.718c0.576,0,0.954,0.27,1.134,0.81l0.307,1.458c0.372-0.384,0.765-0.731,1.179-1.044
		c0.414-0.312,0.852-0.582,1.314-0.81c0.462-0.228,0.956-0.402,1.484-0.522c0.528-0.12,1.104-0.18,1.729-0.18
		c1.008,0,1.901,0.171,2.682,0.513c0.78,0.342,1.431,0.822,1.953,1.44c0.522,0.619,0.918,1.356,1.188,2.214
		c0.27,0.858,0.404,1.803,0.404,2.835v11.754h-4.445v-11.754c0-1.128-0.262-2.001-0.783-2.619c-0.522-0.618-1.306-0.927-2.35-0.927
		c-0.768,0-1.487,0.174-2.159,0.522c-0.673,0.348-1.309,0.822-1.908,1.422v13.356H336.358z"/>
	<path d="M373.329,293.601c1.057,0,2.001,0.162,2.835,0.486c0.834,0.324,1.549,0.756,2.143,1.296s1.062,1.158,1.404,1.854
		c0.342,0.696,0.542,1.417,0.603,2.16l-2.826,0.594c-0.036,0.012-0.075,0.018-0.117,0.018s-0.081,0-0.116,0
		c-0.204,0-0.388-0.057-0.55-0.171c-0.161-0.114-0.291-0.291-0.387-0.531c-0.107-0.312-0.246-0.609-0.414-0.891
		c-0.168-0.282-0.372-0.528-0.611-0.738c-0.24-0.21-0.522-0.378-0.847-0.504s-0.696-0.189-1.116-0.189
		c-0.504,0-0.953,0.087-1.35,0.261c-0.396,0.174-0.732,0.408-1.008,0.702c-0.276,0.294-0.486,0.636-0.63,1.026
		c-0.145,0.39-0.216,0.801-0.216,1.233c0,0.36,0.038,0.708,0.116,1.044s0.201,0.672,0.369,1.008
		c0.168,0.336,0.387,0.681,0.657,1.035c0.27,0.354,0.603,0.735,0.999,1.143l6.912,7.182c0.396-0.756,0.714-1.554,0.954-2.394
		c0.239-0.84,0.396-1.692,0.468-2.556c0.023-0.276,0.114-0.498,0.27-0.666c0.156-0.168,0.372-0.252,0.648-0.252h2.79
		c-0.012,1.584-0.24,3.096-0.684,4.536c-0.444,1.44-1.08,2.766-1.908,3.978l5.454,5.652h-4.356c-0.228,0-0.429-0.012-0.603-0.036
		c-0.175-0.024-0.34-0.069-0.495-0.135c-0.156-0.066-0.307-0.153-0.45-0.261c-0.145-0.108-0.294-0.246-0.45-0.414l-1.8-1.854
		c-1.152,0.936-2.434,1.668-3.843,2.196c-1.41,0.528-2.938,0.792-4.581,0.792c-1.008,0-1.992-0.171-2.952-0.513
		c-0.96-0.342-1.818-0.837-2.574-1.485s-1.365-1.431-1.827-2.349s-0.692-1.953-0.692-3.105c0-0.804,0.132-1.569,0.396-2.295
		s0.63-1.401,1.099-2.025c0.468-0.624,1.022-1.188,1.664-1.692c0.643-0.504,1.348-0.936,2.115-1.296
		c-0.636-0.9-1.101-1.779-1.395-2.637c-0.295-0.858-0.441-1.713-0.441-2.565c0-0.9,0.165-1.755,0.495-2.565
		c0.33-0.81,0.81-1.515,1.44-2.115c0.63-0.6,1.4-1.077,2.313-1.431C371.146,293.778,372.178,293.601,373.329,293.601z
		 M367.065,312.393c0,0.66,0.114,1.254,0.342,1.782c0.229,0.528,0.54,0.975,0.937,1.341c0.396,0.366,0.854,0.648,1.377,0.846
		c0.521,0.198,1.077,0.297,1.665,0.297c1.056,0,2.019-0.165,2.889-0.495s1.665-0.789,2.385-1.377l-6.84-7.02
		c-0.96,0.624-1.659,1.326-2.097,2.106C367.284,310.653,367.065,311.493,367.065,312.393z"/>
	<path d="M401.516,315.921h10.422v3.996h-15.264v-26.028h4.842V315.921z"/>
	<path d="M421.982,301.161c1.164,0,2.235,0.186,3.213,0.558c0.979,0.373,1.821,0.916,2.529,1.629s1.26,1.59,1.656,2.628
		c0.396,1.038,0.594,2.223,0.594,3.555c0,0.336-0.016,0.615-0.045,0.837c-0.03,0.222-0.084,0.396-0.162,0.522
		s-0.183,0.216-0.315,0.27c-0.132,0.054-0.3,0.081-0.504,0.081h-11.412c0.133,1.896,0.643,3.288,1.53,4.176
		c0.888,0.888,2.064,1.332,3.528,1.332c0.72,0,1.341-0.084,1.863-0.252c0.521-0.168,0.978-0.354,1.367-0.558
		c0.391-0.204,0.732-0.39,1.026-0.558c0.294-0.168,0.579-0.252,0.855-0.252c0.18,0,0.335,0.036,0.468,0.108
		c0.132,0.072,0.246,0.174,0.342,0.306l1.296,1.62c-0.492,0.576-1.044,1.059-1.656,1.449c-0.611,0.39-1.251,0.702-1.917,0.936
		c-0.666,0.234-1.344,0.399-2.033,0.495c-0.69,0.096-1.359,0.144-2.008,0.144c-1.284,0-2.478-0.213-3.582-0.639
		c-1.104-0.426-2.063-1.056-2.88-1.89c-0.815-0.834-1.458-1.866-1.926-3.096s-0.702-2.655-0.702-4.275
		c0-1.26,0.204-2.445,0.612-3.555c0.408-1.11,0.993-2.076,1.755-2.898c0.762-0.822,1.692-1.473,2.79-1.953
		C419.363,301.401,420.603,301.161,421.982,301.161z M422.072,304.347c-1.296,0-2.31,0.366-3.042,1.098
		c-0.731,0.732-1.2,1.771-1.403,3.114h8.352c0-0.576-0.078-1.119-0.234-1.629c-0.155-0.51-0.396-0.957-0.72-1.341
		c-0.324-0.384-0.731-0.687-1.224-0.909S422.732,304.347,422.072,304.347z"/>
	<path d="M448.063,319.917h-1.998c-0.42,0-0.75-0.063-0.989-0.189c-0.24-0.126-0.421-0.381-0.54-0.765l-0.396-1.314
		c-0.468,0.42-0.927,0.789-1.377,1.107c-0.45,0.318-0.915,0.585-1.395,0.801c-0.48,0.216-0.99,0.378-1.53,0.486
		s-1.141,0.162-1.8,0.162c-0.78,0-1.5-0.105-2.16-0.316s-1.228-0.527-1.701-0.948c-0.475-0.421-0.843-0.945-1.107-1.571
		c-0.264-0.626-0.396-1.354-0.396-2.185c0-0.699,0.183-1.388,0.549-2.068c0.366-0.68,0.975-1.294,1.827-1.842
		c0.852-0.548,1.986-1.002,3.402-1.363c1.415-0.361,3.174-0.542,5.273-0.542v-1.088c0-1.245-0.261-2.167-0.783-2.766
		c-0.521-0.599-1.28-0.897-2.276-0.897c-0.72,0-1.32,0.084-1.8,0.252c-0.48,0.168-0.897,0.357-1.251,0.567
		c-0.354,0.21-0.682,0.399-0.981,0.567c-0.3,0.168-0.63,0.252-0.99,0.252c-0.3,0-0.558-0.078-0.773-0.234
		c-0.216-0.156-0.391-0.348-0.522-0.576l-0.81-1.422c2.124-1.944,4.686-2.916,7.686-2.916c1.08,0,2.043,0.177,2.89,0.531
		c0.846,0.354,1.563,0.846,2.15,1.476c0.588,0.63,1.035,1.383,1.341,2.259c0.307,0.876,0.459,1.836,0.459,2.88V319.917z
		 M439.424,317.145c0.456,0,0.876-0.042,1.26-0.124s0.747-0.207,1.089-0.372c0.343-0.166,0.672-0.369,0.99-0.611
		s0.639-0.529,0.963-0.859v-3.091c-1.296,0-2.379,0.082-3.249,0.245s-1.568,0.372-2.097,0.625c-0.528,0.254-0.903,0.55-1.125,0.889
		c-0.223,0.338-0.333,0.707-0.333,1.105c0,0.786,0.23,1.348,0.693,1.686C438.076,316.976,438.68,317.145,439.424,317.145z"/>
	<path d="M452.438,319.917v-18.468h2.61c0.456,0,0.773,0.084,0.954,0.252c0.18,0.168,0.3,0.456,0.359,0.864l0.271,2.232
		c0.659-1.14,1.434-2.04,2.321-2.7c0.889-0.66,1.884-0.99,2.988-0.99c0.912,0,1.668,0.21,2.269,0.63l-0.576,3.33
		c-0.036,0.216-0.114,0.369-0.234,0.459c-0.12,0.09-0.282,0.135-0.486,0.135c-0.18,0-0.426-0.042-0.737-0.126
		c-0.313-0.084-0.727-0.126-1.242-0.126c-0.924,0-1.716,0.255-2.376,0.765c-0.66,0.51-1.218,1.257-1.674,2.241v11.502H452.438z"/>
	<path d="M467.144,319.917v-18.468h2.718c0.576,0,0.954,0.27,1.134,0.81l0.307,1.458c0.372-0.384,0.765-0.731,1.179-1.044
		c0.414-0.312,0.852-0.582,1.314-0.81c0.462-0.228,0.956-0.402,1.484-0.522c0.528-0.12,1.104-0.18,1.729-0.18
		c1.008,0,1.901,0.171,2.682,0.513c0.78,0.342,1.431,0.822,1.953,1.44c0.522,0.619,0.918,1.356,1.188,2.214
		c0.27,0.858,0.404,1.803,0.404,2.835v11.754h-4.445v-11.754c0-1.128-0.262-2.001-0.783-2.619c-0.522-0.618-1.306-0.927-2.35-0.927
		c-0.768,0-1.487,0.174-2.159,0.522c-0.673,0.348-1.309,0.822-1.908,1.422v13.356H467.144z"/>
	<path d="M493.01,296.067c0,0.384-0.078,0.744-0.234,1.08s-0.363,0.63-0.621,0.882s-0.561,0.453-0.909,0.603
		c-0.348,0.15-0.72,0.225-1.115,0.225c-0.385,0-0.747-0.075-1.09-0.225c-0.342-0.15-0.639-0.351-0.891-0.603
		s-0.453-0.546-0.603-0.882c-0.15-0.336-0.226-0.696-0.226-1.08c0-0.396,0.075-0.768,0.226-1.116c0.149-0.348,0.351-0.648,0.603-0.9
		c0.252-0.252,0.549-0.453,0.891-0.603c0.343-0.15,0.705-0.225,1.09-0.225c0.396,0,0.768,0.075,1.115,0.225
		c0.349,0.15,0.651,0.351,0.909,0.603c0.258,0.252,0.465,0.552,0.621,0.9S493.01,295.671,493.01,296.067z M492.344,301.449v18.468
		h-4.446v-18.468H492.344z"/>
	<path d="M497.365,319.917v-18.468h2.718c0.576,0,0.954,0.27,1.134,0.81l0.307,1.458c0.372-0.384,0.765-0.731,1.179-1.044
		c0.414-0.312,0.852-0.582,1.314-0.81c0.462-0.228,0.956-0.402,1.484-0.522c0.528-0.12,1.104-0.18,1.729-0.18
		c1.008,0,1.901,0.171,2.682,0.513c0.78,0.342,1.431,0.822,1.953,1.44c0.522,0.619,0.918,1.356,1.188,2.214
		c0.27,0.858,0.404,1.803,0.404,2.835v11.754h-4.445v-11.754c0-1.128-0.262-2.001-0.783-2.619c-0.522-0.618-1.306-0.927-2.35-0.927
		c-0.768,0-1.487,0.174-2.159,0.522c-0.673,0.348-1.309,0.822-1.908,1.422v13.356H497.365z"/>
	<path d="M524.221,301.125c0.792,0,1.536,0.081,2.232,0.243c0.695,0.162,1.332,0.399,1.908,0.711h5.31v1.656
		c0,0.276-0.072,0.492-0.216,0.648c-0.144,0.156-0.39,0.264-0.738,0.324l-1.655,0.306c0.119,0.312,0.213,0.642,0.278,0.99
		c0.066,0.348,0.1,0.714,0.1,1.098c0,0.912-0.184,1.737-0.55,2.475c-0.366,0.738-0.87,1.365-1.512,1.881
		c-0.642,0.516-1.404,0.915-2.286,1.197c-0.882,0.282-1.839,0.423-2.871,0.423c-0.695,0-1.374-0.066-2.033-0.198
		c-0.576,0.351-0.864,0.744-0.864,1.179c0,0.375,0.171,0.65,0.513,0.825c0.342,0.175,0.792,0.299,1.351,0.371
		c0.558,0.073,1.19,0.109,1.898,0.109s1.434,0.03,2.178,0.09c0.744,0.061,1.47,0.166,2.179,0.316
		c0.708,0.15,1.341,0.388,1.898,0.713c0.559,0.325,1.008,0.768,1.351,1.328c0.342,0.56,0.513,1.279,0.513,2.158
		c0,0.819-0.201,1.613-0.604,2.384c-0.401,0.771-0.983,1.457-1.745,2.059c-0.763,0.602-1.695,1.086-2.8,1.454
		c-1.104,0.367-2.364,0.551-3.779,0.551c-1.404,0-2.622-0.135-3.654-0.405c-1.032-0.27-1.887-0.63-2.565-1.08
		c-0.678-0.45-1.185-0.969-1.521-1.557c-0.336-0.588-0.504-1.2-0.504-1.836c0-0.864,0.264-1.59,0.792-2.178
		c0.527-0.588,1.26-1.056,2.196-1.404c-0.457-0.252-0.822-0.588-1.099-1.008c-0.276-0.42-0.414-0.966-0.414-1.638
		c0-0.276,0.048-0.561,0.145-0.855c0.096-0.294,0.243-0.585,0.44-0.873c0.198-0.288,0.447-0.561,0.747-0.819
		c0.3-0.258,0.654-0.489,1.063-0.693c-0.937-0.504-1.672-1.176-2.205-2.016c-0.534-0.84-0.801-1.824-0.801-2.952
		c0-0.912,0.183-1.737,0.549-2.475c0.365-0.738,0.876-1.368,1.529-1.89c0.654-0.522,1.429-0.921,2.322-1.197
		S523.165,301.125,524.221,301.125z M529.099,320.692c0-0.368-0.107-0.667-0.323-0.9c-0.217-0.233-0.511-0.413-0.882-0.542
		c-0.373-0.129-0.808-0.224-1.306-0.285c-0.498-0.061-1.025-0.092-1.584-0.092c-0.558,0-1.134,0-1.728,0
		c-0.595,0-1.167-0.066-1.72-0.198c-0.504,0.276-0.908,0.603-1.215,0.981c-0.306,0.378-0.459,0.813-0.459,1.305
		c0,0.324,0.081,0.627,0.243,0.909c0.162,0.282,0.42,0.525,0.774,0.729c0.354,0.204,0.813,0.363,1.377,0.477
		c0.563,0.114,1.254,0.171,2.069,0.171c0.828,0,1.542-0.064,2.143-0.193c0.6-0.129,1.095-0.307,1.484-0.533
		c0.391-0.227,0.676-0.496,0.855-0.809S529.099,321.06,529.099,320.692z M524.221,310.233c0.552,0,1.032-0.075,1.44-0.225
		c0.408-0.15,0.747-0.357,1.017-0.621c0.271-0.264,0.475-0.582,0.612-0.954s0.207-0.78,0.207-1.224c0-0.912-0.273-1.635-0.819-2.169
		c-0.546-0.534-1.365-0.801-2.457-0.801s-1.911,0.268-2.457,0.801c-0.546,0.534-0.818,1.257-0.818,2.169
		c0,0.432,0.068,0.834,0.207,1.206c0.138,0.372,0.342,0.693,0.611,0.963c0.271,0.27,0.612,0.48,1.026,0.63
		C523.204,310.158,523.681,310.233,524.221,310.233z"/>
	<path d="M548.502,315.921h10.422v3.996H543.66v-26.028h4.842V315.921z"/>
	<path d="M576.492,319.917h-1.998c-0.42,0-0.75-0.063-0.989-0.189c-0.24-0.126-0.421-0.381-0.54-0.765l-0.396-1.314
		c-0.468,0.42-0.927,0.789-1.377,1.107c-0.45,0.318-0.915,0.585-1.395,0.801c-0.48,0.216-0.99,0.378-1.53,0.486
		s-1.141,0.162-1.8,0.162c-0.78,0-1.5-0.105-2.16-0.316s-1.228-0.527-1.701-0.948c-0.475-0.421-0.843-0.945-1.107-1.571
		c-0.264-0.626-0.396-1.354-0.396-2.185c0-0.699,0.183-1.388,0.549-2.068c0.366-0.68,0.975-1.294,1.827-1.842
		c0.852-0.548,1.986-1.002,3.402-1.363c1.415-0.361,3.174-0.542,5.273-0.542v-1.088c0-1.245-0.261-2.167-0.783-2.766
		c-0.521-0.599-1.28-0.897-2.276-0.897c-0.72,0-1.32,0.084-1.8,0.252c-0.48,0.168-0.897,0.357-1.251,0.567
		c-0.354,0.21-0.682,0.399-0.981,0.567c-0.3,0.168-0.63,0.252-0.99,0.252c-0.3,0-0.558-0.078-0.773-0.234
		c-0.216-0.156-0.391-0.348-0.522-0.576l-0.81-1.422c2.124-1.944,4.686-2.916,7.686-2.916c1.08,0,2.043,0.177,2.89,0.531
		c0.846,0.354,1.563,0.846,2.15,1.476c0.588,0.63,1.035,1.383,1.341,2.259c0.307,0.876,0.459,1.836,0.459,2.88V319.917z
		 M567.853,317.145c0.456,0,0.876-0.042,1.26-0.124s0.747-0.207,1.089-0.372c0.343-0.166,0.672-0.369,0.99-0.611
		s0.639-0.529,0.963-0.859v-3.091c-1.296,0-2.379,0.082-3.249,0.245s-1.568,0.372-2.097,0.625c-0.528,0.254-0.903,0.55-1.125,0.889
		c-0.223,0.338-0.333,0.707-0.333,1.105c0,0.786,0.23,1.348,0.693,1.686C566.505,316.976,567.108,317.145,567.853,317.145z"/>
	<path d="M580.92,319.917v-26.748h4.446v10.548c0.731-0.78,1.56-1.401,2.484-1.863c0.924-0.462,2.004-0.693,3.239-0.693
		c1.009,0,1.93,0.207,2.764,0.621c0.834,0.414,1.554,1.017,2.16,1.809c0.605,0.792,1.073,1.771,1.403,2.934
		c0.33,1.164,0.495,2.502,0.495,4.014c0,1.38-0.187,2.658-0.558,3.834c-0.372,1.176-0.903,2.196-1.593,3.06
		c-0.69,0.864-1.524,1.539-2.503,2.025c-0.978,0.486-2.072,0.729-3.284,0.729c-0.564,0-1.08-0.057-1.549-0.171
		c-0.468-0.114-0.894-0.273-1.277-0.477c-0.385-0.204-0.741-0.453-1.071-0.747s-0.646-0.621-0.945-0.981l-0.197,1.242
		c-0.072,0.312-0.195,0.534-0.369,0.666c-0.174,0.132-0.411,0.198-0.711,0.198H580.92z M589.561,304.617
		c-0.925,0-1.714,0.195-2.367,0.585c-0.654,0.39-1.264,0.939-1.827,1.647v8.28c0.504,0.624,1.053,1.059,1.647,1.305
		c0.594,0.246,1.238,0.369,1.935,0.369c0.672,0,1.278-0.126,1.818-0.378s0.999-0.636,1.377-1.152
		c0.378-0.516,0.669-1.167,0.873-1.953c0.203-0.786,0.306-1.712,0.306-2.781c0-1.08-0.087-1.995-0.261-2.745
		c-0.175-0.75-0.423-1.359-0.747-1.827c-0.324-0.468-0.718-0.81-1.18-1.026C590.673,304.725,590.148,304.617,589.561,304.617z"/>
</g>
<path fill="#F8971F" d="M277.1,75.833c-3.257,0-6.383-1.202-8.802-3.384c-2.759-2.486-4.342-6.046-4.342-9.766
	c0-3.254,1.2-6.379,3.38-8.799c2.49-2.762,6.051-4.345,9.77-4.345c3.257,0,6.383,1.202,8.802,3.384
	c2.759,2.485,4.343,6.045,4.343,9.766c0,3.254-1.2,6.379-3.38,8.799C284.38,74.249,280.819,75.833,277.1,75.833z"/>
<path fill="#FFFFFF" d="M116.65,71.602c-6.147-10.521-17.561-17.589-30.625-17.589c-6.511,0-12.611,1.756-17.854,4.819
	c-10.521,6.146-17.589,17.56-17.589,30.624c0,6.511,1.756,12.611,4.819,17.854c6.147,10.521,17.56,17.589,30.625,17.589
	c6.511,0,12.611-1.756,17.854-4.819c10.521-6.146,17.589-17.56,17.589-30.625C121.469,82.946,119.713,76.845,116.65,71.602z"/>
<path fill="#9CADB7" d="M413.205,213.558c0,0-26.997,2.016-27.726,0s0-151.683,0-151.683l28.29,0.778L413.205,213.558z"/>
<polygon fill="#9CADB7" points="509.333,255.56 418.707,253.375 423.108,223.883 509.333,223.883 "/>
<path fill="#FFFFFF" d="M57.457,115.531l-6.756,0.177l-0.106,3.571l4.048,0.063l-5.787,5.787l-0.496,0.495l-4.248,4.248l3.544,3.47
	l4.673-4.674l-0.001-0.001c1.029-1.035,3.703-3.723,5.783-5.814l0.057,3.683l3.572-0.106l0.288-11.028L57.457,115.531z"/>
<path fill="#FFFFFF" d="M61.758,58.914l-0.177-6.756l-3.571-0.106L57.947,56.1l-5.787-5.787l-0.495-0.496l-4.248-4.248l-3.47,3.544
	l4.674,4.673l0.001-0.001c1.035,1.029,3.723,3.703,5.814,5.783l-3.683,0.057l0.106,3.572l11.028,0.288L61.758,58.914z"/>
<path fill="#FFFFFF" d="M47.258,86.99l-4.902-4.652l-2.601,2.45l2.818,2.907H34.39h-0.701h-6.007l0.053,4.959h6.609v-0.001
	c1.46-0.004,5.251-0.015,8.2-0.022l-2.563,2.644l2.601,2.45l8.001-7.594L47.258,86.99z"/>
<path fill="#FFFFFF" d="M140.425,86.99l-4.902-4.652l-2.601,2.45l2.818,2.907h-8.184h-0.701h-6.007l0.053,4.959h6.609v-0.001
	c1.46-0.004,5.251-0.015,8.2-0.022l-2.563,2.644l2.601,2.45l8.001-7.594L140.425,86.99z"/>
</svg>
